<?xml version="1.0" encoding="utf-8"?>
<!-- Generator: Adobe Illustrator 24.0.0, SVG Export Plug-In . SVG Version: 6.00 Build 0)  -->
<svg version="1.1" id="Capa_1" xmlns="http://www.w3.org/2000/svg" xmlns:xlink="http://www.w3.org/1999/xlink" x="0px" y="0px"
	 viewBox="0 0 436 392.6" style="enable-background:new 0 0 436 392.6;" xml:space="preserve">
<style type="text/css">
	.st0{fill:url(#SVGID_1_);}
	.st1{fill:url(#SVGID_2_);}
	.st2{opacity:0.8;fill:url(#SVGID_3_);enable-background:new    ;}
	.st3{opacity:0.8;fill:url(#SVGID_4_);enable-background:new    ;}
	.st4{opacity:0.8;fill:url(#SVGID_5_);enable-background:new    ;}
	.st5{opacity:0.8;fill:url(#SVGID_6_);enable-background:new    ;}
	.st6{opacity:0.8;fill:url(#SVGID_7_);enable-background:new    ;}
	.st7{opacity:0.8;fill:url(#SVGID_8_);enable-background:new    ;}
	.st8{fill:#CBDFEF;}
	.st9{opacity:0.8;fill:url(#SVGID_9_);enable-background:new    ;}
	.st10{fill:#FFFFFF;}
	.st11{fill:url(#SVGID_10_);}
	.st12{fill:#809297;}
	.st13{fill:url(#XMLID_3_);}
	.st14{fill:#8A9EA2;}
	.st15{fill:url(#XMLID_4_);}
	.st16{fill:#92A7AC;}
	.st17{fill:url(#XMLID_5_);}
	.st18{opacity:0.1;fill:#FFFFFF;enable-background:new    ;}
	.st19{fill:#FDC870;}
	.st20{fill:url(#SVGID_11_);}
	.st21{fill:url(#XMLID_6_);}
	.st22{fill:url(#SVGID_12_);}
	.st23{fill:url(#SVGID_13_);}
	.st24{fill:url(#SVGID_14_);}
	.st25{opacity:0.7;fill:url(#SVGID_15_);enable-background:new    ;}
	.st26{opacity:0.7;fill:url(#SVGID_16_);enable-background:new    ;}
	.st27{fill:url(#SVGID_17_);}
	.st28{opacity:0.8;fill:url(#SVGID_18_);enable-background:new    ;}
	.st29{fill:url(#SVGID_19_);}
	.st30{fill:#FFB300;}
	.st31{fill:#FFA000;}
	.st32{fill:#FFCA28;}
	.st33{opacity:0.7;fill:url(#SVGID_20_);enable-background:new    ;}
	.st34{opacity:0.7;fill:url(#SVGID_21_);enable-background:new    ;}
	.st35{fill:url(#SVGID_22_);}
	.st36{opacity:0.8;fill:url(#SVGID_23_);enable-background:new    ;}
	.st37{fill:url(#SVGID_24_);}
	.st38{fill:#D32F2F;}
	.st39{opacity:0.8;fill:url(#SVGID_25_);enable-background:new    ;}
	.st40{fill:#EF5350;}
	.st41{fill:none;stroke:#FFFFFF;stroke-width:1.0404;stroke-miterlimit:9.9998;}
	.st42{fill:none;stroke:#FFFFFF;stroke-width:1.0404;stroke-miterlimit:10;}
	.st43{opacity:0.7;fill:url(#SVGID_26_);enable-background:new    ;}
	.st44{opacity:0.7;fill:url(#SVGID_27_);enable-background:new    ;}
	.st45{fill:url(#SVGID_28_);}
	.st46{fill:#25284C;}
	.st47{fill:#111638;}
	.st48{fill:#F5F5F5;}
	.st49{fill:#7B92B9;}
	.st50{fill:#6A7EA2;}
	.st51{fill:none;stroke:#FFFFFF;stroke-width:0.7521;stroke-miterlimit:10;}
	.st52{opacity:0.8;fill:url(#SVGID_29_);enable-background:new    ;}
	.st53{opacity:0.8;fill:url(#SVGID_30_);enable-background:new    ;}
	.st54{opacity:0.8;fill:url(#SVGID_31_);enable-background:new    ;}
	.st55{fill:url(#SVGID_32_);}
	.st56{fill:url(#SVGID_33_);}
	.st57{opacity:0.7;fill:url(#SVGID_34_);enable-background:new    ;}
	.st58{fill:url(#SVGID_35_);}
	.st59{fill:none;stroke:#FFFFFF;stroke-width:1.0404;stroke-linecap:round;stroke-linejoin:round;stroke-miterlimit:10;}
	.st60{fill:#FFEE58;}
	.st61{fill:none;stroke:#FFFFFF;stroke-width:0.5202;stroke-linecap:round;stroke-linejoin:round;stroke-miterlimit:10;}
	.st62{fill:url(#SVGID_36_);}
</style>
<g id="Background">
</g>
<g id="Object">
	<g>
		
			<linearGradient id="SVGID_1_" gradientUnits="userSpaceOnUse" x1="218.1164" y1="20.5346" x2="218.1164" y2="403.3205" gradientTransform="matrix(1 0 0 -1 0 406)">
			<stop  offset="1.860120e-03" style="stop-color:#AC24B9"/>
			<stop  offset="1" style="stop-color:#2E2142"/>
		</linearGradient>
		<path class="st0" d="M425.9,291.3c-0.6,3.5-1.3,7-2.1,10.4c-0.6,2.6-1.3,5.3-2,7.9c-4,14.3-9.7,28.7-17.5,41.4
			c-8,13-18.2,24.2-31.3,32.1c-7,4.2-14.5,7.3-22.4,9.6H84c-25.8-14-48.4-38.6-43.5-67.5c4.3-25.1,8.3-50.1-0.5-73.3
			c-6.4-16.8-19-30.7-26.1-47.2c-17.6-41.1,4.5-78.3,37.3-101.1c1.2-0.8,2.4-1.6,3.6-2.4c0.3-0.2,0.6-0.4,0.9-0.6
			c1.3-0.9,2.7-1.7,4-2.6c2.8-2,5.5-4,8.2-6.2h0c2-1.6,4-3.3,5.9-5c0.5-0.4,0.9-0.8,1.4-1.2c2.7-2.4,5.3-4.9,7.9-7.4
			c1.4-1.3,2.7-2.7,4.1-4c10.5-10.5,20.6-21.5,31.7-31.1c10.6-9.1,22-17,35.5-21.9c8.4-3,17.1-5.2,25.8-6.4
			c34.6-4.9,70.5,4.3,98.6,25.8c1.4,1.1,2.8,2.1,4.1,3.2c14.5,11.9,27.9,27,33.8,44.4c7.4,22,18.4,43.2,38.4,56.2
			c16.5,10.8,32.1,17.9,45.2,33.6c4.7,5.6,8.8,11.6,12.3,17.8c2.8,5.1,5.3,10.3,7.3,15.6c2.7,7.1,4.8,14.4,6.2,21.9
			C429.5,252.2,429.3,272,425.9,291.3z"/>
		
			<linearGradient id="SVGID_2_" gradientUnits="userSpaceOnUse" x1="28.944" y1="24.3215" x2="8.0537" y2="155.9306" gradientTransform="matrix(1 0 0 -1 0 406)">
			<stop  offset="1.860120e-03" style="stop-color:#AC24B9"/>
			<stop  offset="1" style="stop-color:#2E2142"/>
		</linearGradient>
		<path class="st1" d="M10.9,335.9c-0.4,7.3,0,15,3.7,21.3c3.1,5.3,10.2,9.4,15.2,5.8c3.8-2.7,4-8.3,2.8-12.8s-3.7-8.7-4-13.3
			c-0.5-7.3,8.1-26-4.9-26.8C12,309.2,11.3,328.7,10.9,335.9z"/>
		<g>
			
				<linearGradient id="SVGID_3_" gradientUnits="userSpaceOnUse" x1="107.6414" y1="21.5524" x2="111.6258" y2="76.2481" gradientTransform="matrix(1 0 0 -1 0 406)">
				<stop  offset="0" style="stop-color:#FFFFFF;stop-opacity:0"/>
				<stop  offset="1" style="stop-color:#662D8D"/>
			</linearGradient>
			<ellipse class="st2" cx="109.3" cy="361.7" rx="25.1" ry="9.9"/>
			
				<linearGradient id="SVGID_4_" gradientUnits="userSpaceOnUse" x1="235.9417" y1="20.2462" x2="239.9262" y2="74.9417" gradientTransform="matrix(1 0 0 -1 0 406)">
				<stop  offset="0" style="stop-color:#FFFFFF;stop-opacity:0"/>
				<stop  offset="1" style="stop-color:#662D8D"/>
			</linearGradient>
			<ellipse class="st3" cx="237.6" cy="363" rx="25.1" ry="9.9"/>
			
				<linearGradient id="SVGID_5_" gradientUnits="userSpaceOnUse" x1="245.9123" y1="79.4595" x2="67.6978" y2="81.6329" gradientTransform="matrix(1 0 0 -1 0 406)">
				<stop  offset="0" style="stop-color:#FFFFFF;stop-opacity:0"/>
				<stop  offset="1" style="stop-color:#662D8D"/>
			</linearGradient>
			<polygon class="st4" points="92.6,318.1 115.4,318.1 165.9,341.6 159.3,356.5 183,356.5 234.4,324.6 171.4,302.6 134,294.2 			
				"/>
			
				<linearGradient id="SVGID_6_" gradientUnits="userSpaceOnUse" x1="194.307" y1="257.9666" x2="97.9557" y2="150.0243" gradientTransform="matrix(1 0 0 -1 0 406)">
				<stop  offset="0" style="stop-color:#FFFFFF;stop-opacity:0"/>
				<stop  offset="1" style="stop-color:#662D8D"/>
			</linearGradient>
			<rect x="97.3" y="146" class="st5" width="124.6" height="81.8"/>
			
				<linearGradient id="SVGID_7_" gradientUnits="userSpaceOnUse" x1="489.4368" y1="95.92" x2="284.741" y2="95.92" gradientTransform="matrix(1 0 0 -1 0 406)">
				<stop  offset="0" style="stop-color:#FFFFFF;stop-opacity:0"/>
				<stop  offset="1" style="stop-color:#662D8D"/>
			</linearGradient>
			<path class="st6" d="M425.9,269.2v22.1c-0.6,3.5-1.3,7-2.1,10.4c-0.6,2.6-1.3,5.3-2,7.9c-4,14.3-9.7,28.7-17.5,41.4h-65.1v-81.8
				H425.9z"/>
			
				<linearGradient id="SVGID_8_" gradientUnits="userSpaceOnUse" x1="459.4924" y1="157.28" x2="241.3553" y2="157.28" gradientTransform="matrix(1 0 0 -1 0 406)">
				<stop  offset="0" style="stop-color:#FFFFFF;stop-opacity:0"/>
				<stop  offset="1" style="stop-color:#662D8D"/>
			</linearGradient>
			<path class="st7" d="M425.9,233.2v58.1c-0.6,3.5-1.3,7-2.1,10.4H242V195.7h170.3c2.8,5.1,5.3,10.3,7.3,15.6
				C422.4,218.4,424.5,225.7,425.9,233.2z"/>
			<g>
				<path class="st8" d="M282.8,276v-58.4H152.3V276l0,0c0,9.6,6.4,19.3,19.1,26.6c25.5,14.7,66.8,14.7,92.3,0
					C276.4,295.2,282.8,285.6,282.8,276z"/>
				
					<linearGradient id="SVGID_9_" gradientUnits="userSpaceOnUse" x1="207.8278" y1="140.4037" x2="305.9124" y2="140.4037" gradientTransform="matrix(1 0 0 -1 0 406)">
					<stop  offset="0" style="stop-color:#FFFFFF;stop-opacity:0"/>
					<stop  offset="1" style="stop-color:#662D8D"/>
				</linearGradient>
				<path class="st9" d="M282.8,276v-58.4H152.3V276l0,0c0,9.6,6.4,19.3,19.1,26.6c25.5,14.7,66.8,14.7,92.3,0
					C276.4,295.2,282.8,285.6,282.8,276z"/>
				<ellipse class="st10" cx="217.6" cy="217.6" rx="65.2" ry="37.7"/>
				<g>
					
						<linearGradient id="SVGID_10_" gradientUnits="userSpaceOnUse" x1="217.56" y1="256.2402" x2="217.56" y2="127.0854" gradientTransform="matrix(1 0 0 -1 0 406)">
						<stop  offset="1.694780e-03" style="stop-color:#00D4C8"/>
						<stop  offset="1" style="stop-color:#00D2C7;stop-opacity:0"/>
					</linearGradient>
					<ellipse class="st11" cx="217.6" cy="210.3" rx="65.2" ry="37.7"/>
					<g>
						<path id="XMLID_21_" class="st12" d="M233.5,199c-0.2,6.8-7.8,12.1-16.8,11.8c-9-0.3-16.2-6.1-16-12.9
							c0.2-6.8,7.8-12.1,16.8-11.8C226.5,186.4,233.7,192.2,233.5,199z"/>
						
							<linearGradient id="XMLID_3_" gradientUnits="userSpaceOnUse" x1="200.6946" y1="207.53" x2="233.4754" y2="207.53" gradientTransform="matrix(1 0 0 -1 0 406)">
							<stop  offset="3.946110e-03" style="stop-color:#FFFFFF;stop-opacity:0"/>
							<stop  offset="1" style="stop-color:#92A7AC"/>
						</linearGradient>
						<path id="XMLID_20_" class="st13" d="M233.5,199c-0.2,6.8-7.8,12.1-16.8,11.8c-9-0.3-16.2-6.1-16-12.9
							c0.2-6.8,7.8-12.1,16.8-11.8C226.5,186.4,233.7,192.2,233.5,199z"/>
						<path id="XMLID_19_" class="st14" d="M244.3,184.4c-0.3,8.3-12.5,14.6-27.2,14.1c-14.8-0.5-26.5-7.6-26.2-15.9
							c0.3-8.3,12.5-14.6,27.2-14.1C232.9,168.9,244.6,176.1,244.3,184.4z"/>
						
							<linearGradient id="XMLID_4_" gradientUnits="userSpaceOnUse" x1="208.421" y1="222.55" x2="239.4123" y2="222.55" gradientTransform="matrix(1 0 0 -1 0 406)">
							<stop  offset="3.946110e-03" style="stop-color:#FFFFFF;stop-opacity:0"/>
							<stop  offset="1" style="stop-color:#92A7AC"/>
						</linearGradient>
						<path id="XMLID_18_" class="st15" d="M244.3,184.4c-0.3,8.3-12.5,14.6-27.2,14.1c-14.8-0.5-26.5-7.6-26.2-15.9
							c0.3-8.3,12.5-14.6,27.2-14.1C232.9,168.9,244.6,176.1,244.3,184.4z"/>
						
							<ellipse id="XMLID_17_" transform="matrix(3.360119e-02 -0.9994 0.9994 3.360119e-02 36.4972 386.0871)" class="st16" cx="217.9" cy="174.2" rx="15" ry="26.7"/>
						
							<linearGradient id="XMLID_5_" gradientUnits="userSpaceOnUse" x1="203.5221" y1="231.84" x2="240.813" y2="231.84" gradientTransform="matrix(1 0 0 -1 0 406)">
							<stop  offset="3.946110e-03" style="stop-color:#FFFFFF;stop-opacity:0"/>
							<stop  offset="1" style="stop-color:#92A7AC"/>
						</linearGradient>
						<path id="XMLID_16_" class="st17" d="M244.6,175.1c-0.3,8.3-12.5,14.6-27.2,14.1c-14.8-0.5-26.5-7.6-26.2-15.9
							c0.3-8.3,12.5-14.6,27.2-14.1C233.2,159.6,244.9,166.8,244.6,175.1z"/>
						<path id="XMLID_15_" class="st18" d="M195.2,177.6c-0.7,0.4-1.8-0.3-2.4-1.4c-0.6-1.1-0.4-2.4,0.3-2.8s1.8,0.3,2.4,1.4
							C196.1,176,195.9,177.2,195.2,177.6z"/>
						<path id="XMLID_14_" class="st18" d="M196.6,179.8c-0.5,0.2-1,0.1-1.3-0.3c-0.2-0.4,0-1,0.5-1.2c0.5-0.2,1-0.1,1.3,0.3
							C197.4,179,197.1,179.6,196.6,179.8z"/>
						<path id="XMLID_13_" class="st18" d="M195.3,187.6c-0.7,0.4-1.8-0.3-2.4-1.4c-0.6-1.1-0.4-2.4,0.3-2.8s1.8,0.3,2.4,1.4
							C196.1,186,196,187.2,195.3,187.6z"/>
						<path id="XMLID_12_" class="st18" d="M196.7,189.8c-0.5,0.2-1,0.1-1.3-0.3c-0.2-0.4,0-1,0.5-1.2c0.5-0.2,1-0.1,1.3,0.3
							C197.4,189,197.2,189.6,196.7,189.8z"/>
						<path id="XMLID_11_" class="st19" d="M266.2,111.5c0.2-27-21.5-44.9-48.4-45.1s-48.8,17.5-49,44.4
							c-0.2,26.4,13.3,30.4,20.2,44c2.1,4.2,1.4,8,1.4,8c-0.1,10.3,11.1,16.1,26.6,16.2s26.8-5.6,26.9-15.8c0,0-0.7-3.8,1.5-8
							C252.5,141.7,266,137.9,266.2,111.5z"/>
						
							<linearGradient id="SVGID_11_" gradientUnits="userSpaceOnUse" x1="206.2963" y1="300.8775" x2="248.4957" y2="250.9416" gradientTransform="matrix(1 0 0 -1 0 406)">
							<stop  offset="3.946110e-03" style="stop-color:#FFFFFF;stop-opacity:0"/>
							<stop  offset="1" style="stop-color:#FDC870"/>
						</linearGradient>
						<path class="st20" d="M266.2,111.5c0,1.6-0.1,3.2-0.2,4.7c-0.1,1.1-0.2,2.2-0.3,3.3c-0.7,5.4-2.1,9.6-3.9,13.1
							c0,0.1-0.1,0.1-0.1,0.2c-4.5,8.8-11.3,13.5-15.8,21.5c-0.2,0.3-0.4,0.6-0.5,0.9c-2.2,4.2-1.5,8-1.5,8c0,0.4,0,0.8-0.1,1.2
							c0,0.2,0,0.4-0.1,0.5c0,0.1,0,0.2,0,0.3c0,0.2,0,0.3-0.1,0.5c0,0.2-0.1,0.3-0.1,0.5c0,0.2-0.1,0.5-0.2,0.7c0,0,0,0,0,0.1
							c-0.2,0.6-0.5,1.3-0.8,1.9c0,0,0,0.1,0,0.1c-2.6,5.1-8.9,8.3-17.3,9.6c-2.5,0.4-5.3,0.6-8.2,0.5c-15.6-0.1-26.7-5.9-26.7-16.2
							c0,0,0.8-3.8-1.4-8c-6.9-13.6-20.4-17.6-20.2-44c0.2-27,22.1-44.6,48.9-44.4C244.7,66.6,266.4,84.5,266.2,111.5z"/>
						
							<linearGradient id="XMLID_6_" gradientUnits="userSpaceOnUse" x1="230.6657" y1="269.7822" x2="230.6657" y2="245.4313" gradientTransform="matrix(0.9996 -2.730000e-02 -2.730000e-02 -0.9996 -6.4974 374.806)">
							<stop  offset="3.946110e-03" style="stop-color:#FFFFFF;stop-opacity:0"/>
							<stop  offset="1" style="stop-color:#FDC870"/>
						</linearGradient>
						<path id="XMLID_1_" class="st21" d="M233,134.8c-0.9-5.1-6.6-11.9-10.8-5.2c-2.9,4.6-2.6,11.1-2.6,16.5v0.3
							c-0.5,0-1,0.1-1.4,0.1c-0.1,0-0.3,0-0.4,0.1c-0.1,0-0.2-0.1-0.4-0.1c-0.5,0-0.9,0-1.4-0.1V146c0.1-4.7,0.1-9.4-1.3-13.9
							c-2.2-7-8.7-6.7-11.2-0.1c-2.4,6.3-0.2,11.1,4.1,14c1.7,1.1,3.7,1.9,5.9,2.4c0,0.1,0,0.2,0,0.4c0,3.5,0,6.9-0.1,10.4
							c0,3.1,0,6.2-0.1,9.3c0,1.4,0,2.8,0,4.2c0,2.1,0,4.1,0,6.2c0.8,0.1,1.7,0.1,2.5,0.1c0-2.1,0-4.2,0-6.4c0-1.4,0-2.8,0-4.2
							c0-3.1,0-6.2,0.1-9.3c0-3.4,0-6.8,0.1-10.2c0.5,0.1,1,0.1,1.4,0.1c0.1,0,0.3,0,0.4-0.1c0.1,0,0.2,0.1,0.4,0.1
							c0.5,0,1,0,1.5-0.1c0,3.4,0,6.9-0.1,10.3c0,3.1,0,6.2-0.1,9.3c0,1.4,0,2.8,0,4.1c0,0.3,0,0.7,0,1c0,1.8,0,3.6,0,5.4v0
							c0,0,0,0,0,0c0,0,0,0,0,0c0,0,0,0,0.1,0c0,0,0,0,0,0h0.2c0.3,0,0.6,0,0.8,0c0.2,0,0.5,0,0.7,0c0.2,0,0.5,0,0.7-0.1
							c0-2.1,0-4.1,0-6.2c0-0.6,0-1.2,0-1.8c0-0.7,0-1.4,0-2.2c0-3.1,0-6.2,0.1-9.3c0-3.5,0-7,0.1-10.5v-0.3
							C228.8,147.2,234.3,142.8,233,134.8z M204.9,137.1c0-2.8,2.8-11.2,6.4-6.3c2.7,3.8,2.3,10,2.1,15.2
							C208.9,145,205,142.4,204.9,137.1z M222,146c-0.1-5.2-0.5-11.4,2.3-15.2c3.6-4.9,6.3,3.5,6.3,6.3
							C230.5,142.6,226.6,145.1,222,146z"/>
						
							<linearGradient id="SVGID_12_" gradientUnits="userSpaceOnUse" x1="246.8128" y1="249.9465" x2="209.5256" y2="312.5891" gradientTransform="matrix(0.9996 -2.730000e-02 -2.730000e-02 -0.9996 -6.4974 374.806)">
							<stop  offset="3.946110e-03" style="stop-color:#FFFFFF;stop-opacity:0"/>
							<stop  offset="1" style="stop-color:#FFFFFF"/>
						</linearGradient>
						<path class="st22" d="M241,104.8c-13.1,8.1-34.7,8.6-48.2,1.3c-13.5-7.3-13.9-19.8-0.8-27.8c13.1-8.1,34.7-8.6,48.2-1.3
							C253.8,84.3,254.1,96.7,241,104.8z"/>
						
							<linearGradient id="SVGID_13_" gradientUnits="userSpaceOnUse" x1="191.8118" y1="269.5839" x2="151.5144" y2="289.099" gradientTransform="matrix(1 0 0 -1 0 406)">
							<stop  offset="3.946110e-03" style="stop-color:#FFFFFF;stop-opacity:0"/>
							<stop  offset="1" style="stop-color:#FFFFFF"/>
						</linearGradient>
						<path class="st23" d="M175.6,125c2.3,6.6,6.5,12.6,11,17.7c4.7,5.3,10.3,10.6,11.3,17.6c0.1,1,0.2,2,0.7,2.9
							c0.5,0.9,1.6,1.5,2.5,1.1c0.5-0.2,0.8-0.6,1-1.1c1.9-3.1,2.6-6.9,1.8-10.5c-1.2-5.7-5.6-9.9-9.3-14.1
							c-3.6-4.1-6.7-9.4-7.8-14.8c-0.7-3.4-0.9-6.9-1.7-10.2c-0.4-1.6-0.8-3.2-1.8-4.6s-2.5-2.3-4.2-2.3c-1.8,0.1-3.3,1.3-4.2,2.9
							c-0.8,1.6-1.1,3.4-1.1,5.1C173.9,118.3,174.5,121.7,175.6,125z"/>
						
							<linearGradient id="SVGID_14_" gradientUnits="userSpaceOnUse" x1="211.6591" y1="227.2444" x2="245.9975" y2="245.7343" gradientTransform="matrix(1 0 0 -1 0 406)">
							<stop  offset="3.946110e-03" style="stop-color:#FFFFFF;stop-opacity:0"/>
							<stop  offset="1" style="stop-color:#FDC870"/>
						</linearGradient>
						<path class="st24" d="M266.2,111.5c0,1.6-0.1,3.2-0.2,4.7c-0.1,1.1-0.2,2.2-0.3,3.3c-0.7,5.2-2.1,9.4-3.9,13.1
							c0,0.1-0.1,0.1-0.1,0.2c-4.5,8.8-11.3,13.5-15.8,21.5c-0.2,0.3-0.4,0.6-0.5,0.9c-2.2,4.2-1.5,8-1.5,8c0,0.4,0,0.8-0.1,1.2
							c0,0.2,0,0.4-0.1,0.5c0,0.1,0,0.2,0,0.3c0,0.2,0,0.3-0.1,0.5c0,0.2-0.1,0.3-0.1,0.5c0,0.2-0.1,0.5-0.2,0.7c0,0,0,0,0,0.1
							c-0.2,0.6-0.5,1.3-0.8,1.9c0,0,0,0.1,0,0.1c1.4,1.9,2.1,4,2.1,6.1c-0.1,1.6-0.6,3.2-1.5,4.6c0.8,1.5,1.2,3.1,1.1,4.7
							c-0.2,5-4.6,9.2-11.2,11.7c0.3,0.9,0.4,1.9,0.4,3c-0.2,6.8-7.8,12.1-16.8,11.8c-0.5,0-1-0.1-1.5-0.1c2-2.4,4.2-4.6,5.3-6.9
							c3.9-7.8,4.4-16.8,4.9-25.3c0-0.2,0-0.3,0-0.5c0.4-7.2,0.8-14.4,1.2-21.5c0-0.7,0.1-1.4,0.4-2.1c0.8-2,3.3-2.4,5.4-2.9
							C255,146.1,264.3,129.3,266.2,111.5z"/>
						<path class="st19" d="M264.2,59.8c0,2.4-2,4.3-4.4,4.3s-4.4-1.9-4.4-4.3s2-4.3,4.4-4.3S264.2,57.4,264.2,59.8z"/>
						<path class="st19" d="M264.2,179.9c0,2.4-2,4.4-4.4,4.4s-4.4-1.9-4.4-4.4c0-2.4,2-4.4,4.4-4.4
							C262.2,175.6,264.2,177.5,264.2,179.9z"/>
						<circle class="st19" cx="181.1" cy="161.1" r="4.4"/>
						<circle class="st19" cx="269" cy="46.9" r="2.7"/>
						<circle class="st19" cx="264.2" cy="155.3" r="2.7"/>
						<circle class="st19" cx="188.2" cy="45.3" r="2.7"/>
						<circle class="st19" cx="271.7" cy="189.2" r="2.7"/>
						<circle class="st19" cx="173.9" cy="203.3" r="2.7"/>
					</g>
					<g>
						
							<linearGradient id="SVGID_15_" gradientUnits="userSpaceOnUse" x1="111.7178" y1="259.3638" x2="227.3846" y2="259.3638" gradientTransform="matrix(1 0 0 -1 0 406)">
							<stop  offset="1.694780e-03" style="stop-color:#00D4C8"/>
							<stop  offset="1" style="stop-color:#00D2C7;stop-opacity:0"/>
						</linearGradient>
						<path class="st25" d="M282.8,210.3V45.3c0,9.6-6.4,19.3-19.1,26.6c-25.5,14.7-66.8,14.7-92.3,0c-12.7-7.3-19.1-17-19.1-26.6
							v164.9l0,0c0,9.6,6.4,19.3,19.1,26.6c25.5,14.7,66.8,14.7,92.3,0C276.4,229.5,282.8,219.9,282.8,210.3z"/>
						
							<linearGradient id="SVGID_16_" gradientUnits="userSpaceOnUse" x1="309.4919" y1="259.3638" x2="228.3021" y2="259.3638" gradientTransform="matrix(1 0 0 -1 0 406)">
							<stop  offset="1.694780e-03" style="stop-color:#00D4C8"/>
							<stop  offset="1" style="stop-color:#00D2C7;stop-opacity:0"/>
						</linearGradient>
						<path class="st26" d="M282.8,210.3V45.3c0,9.6-6.4,19.3-19.1,26.6c-25.5,14.7-66.8,14.7-92.3,0c-12.7-7.3-19.1-17-19.1-26.6
							v164.9l0,0c0,9.6,6.4,19.3,19.1,26.6c25.5,14.7,66.8,14.7,92.3,0C276.4,229.5,282.8,219.9,282.8,210.3z"/>
						
							<linearGradient id="SVGID_17_" gradientUnits="userSpaceOnUse" x1="217.56" y1="421.1727" x2="217.56" y2="292.0179" gradientTransform="matrix(1 0 0 -1 0 406)">
							<stop  offset="1.694780e-03" style="stop-color:#00D4C8"/>
							<stop  offset="1" style="stop-color:#00D2C7;stop-opacity:0"/>
						</linearGradient>
						<ellipse class="st27" cx="217.6" cy="45.3" rx="65.2" ry="37.7"/>
					</g>
				</g>
				<path class="st10" d="M162.1,150.6L162.1,150.6c-2.8-1.6-4.5-4.5-4.5-7.7V83c0-1.3,1.4-2.1,2.6-1.5l0,0c2.8,1.6,4.6,4.6,4.6,7.9
					v59.7C164.8,150.5,163.3,151.3,162.1,150.6z"/>
				<path class="st10" d="M162.1,177.6L162.1,177.6c-2.8-1.6-4.5-4.5-4.5-7.7v-8.5c0-1.3,1.4-2.1,2.6-1.5l0,0
					c2.8,1.6,4.6,4.6,4.6,7.9v8.2C164.8,177.4,163.3,178.3,162.1,177.6z"/>
			</g>
			<g>
				<path class="st8" d="M383.8,325.6v-39.5h-88.2v39.5l0,0c0,6.5,4.3,13,12.9,18c17.2,10,45.2,10,62.4,0
					C379.5,338.7,383.8,332.2,383.8,325.6z"/>
				
					<linearGradient id="SVGID_18_" gradientUnits="userSpaceOnUse" x1="333.1112" y1="87.3587" x2="399.4301" y2="87.3587" gradientTransform="matrix(1 0 0 -1 0 406)">
					<stop  offset="0" style="stop-color:#FFFFFF;stop-opacity:0"/>
					<stop  offset="1" style="stop-color:#662D8D"/>
				</linearGradient>
				<path class="st28" d="M383.8,325.6v-39.5h-88.2v39.5l0,0c0,6.5,4.3,13,12.9,18c17.2,10,45.2,10,62.4,0
					C379.5,338.7,383.8,332.2,383.8,325.6z"/>
				<ellipse class="st10" cx="339.7" cy="286.2" rx="44.1" ry="25.5"/>
				<g>
					
						<linearGradient id="SVGID_19_" gradientUnits="userSpaceOnUse" x1="339.69" y1="165.6815" x2="339.69" y2="78.3549" gradientTransform="matrix(1 0 0 -1 0 406)">
						<stop  offset="1.694780e-03" style="stop-color:#00D4C8"/>
						<stop  offset="1" style="stop-color:#00D2C7;stop-opacity:0"/>
					</linearGradient>
					<ellipse class="st29" cx="339.7" cy="281.2" rx="44.1" ry="25.5"/>
					<g>
						<path class="st19" d="M371.3,210.3c0,1.6-1.3,2.9-2.9,2.9s-2.9-1.3-2.9-2.9s1.3-2.9,2.9-2.9S371.3,208.6,371.3,210.3z"/>
						<circle class="st19" cx="365.5" cy="273.6" r="2.9"/>
						<path class="st19" d="M318,251c0,1.6-1.3,2.9-2.9,2.9s-2.9-1.3-2.9-2.9s1.3-2.9,2.9-2.9S318,249.3,318,251z"/>
						<path class="st19" d="M364.4,197.8c0,1-0.8,1.9-1.8,1.9c-1,0-1.8-0.8-1.8-1.9s0.8-1.9,1.8-1.9
							C363.6,196,364.4,196.8,364.4,197.8z"/>
						<path class="st19" d="M356.1,281.2c0,1-0.8,1.9-1.8,1.9c-1,0-1.8-0.8-1.8-1.9s0.8-1.9,1.8-1.9S356.1,280.2,356.1,281.2z"/>
						<path class="st19" d="M316.6,195.2c0,1-0.8,1.9-1.9,1.9s-1.9-0.8-1.9-1.9s0.8-1.9,1.9-1.9S316.6,194.2,316.6,195.2z"/>
						<path class="st19" d="M378.2,249.6c0,1-0.8,1.9-1.8,1.9c-1,0-1.8-0.8-1.8-1.9s0.8-1.9,1.8-1.9
							C377.3,247.8,378.2,248.6,378.2,249.6z"/>
						<path class="st19" d="M312,276.5c0,1-0.8,1.9-1.9,1.9s-1.9-0.8-1.9-1.9s0.8-1.9,1.9-1.9S312,275.5,312,276.5z"/>
						<g>
							<path class="st30" d="M367.4,242.5c0,0.1,0,0.3,0,0.4c0,1.7-0.2,3.4-0.5,4.8c-0.2,0.9-0.4,1.8-0.7,2.6c-1.1,3.4-3,6-5.5,7.6
								l0,0l-0.2,0.1c-0.1,0.1-0.3,0.1-0.4,0.2l-6.8,4l-1.5-2.6c-2.7-0.4-5.5-1.4-8.6-3.1c-13.4-7.7-24.2-26.5-24.2-42
								c0-1.6,0.1-3,0.3-4.4c0.1-0.9,0.3-1.7,0.5-2.5c0.2-0.6,0.4-1.3,0.6-1.9l-1.6-2.8l6.9-4c0.2-0.1,0.5-0.3,0.7-0.4l0.4-0.2l0,0
								c2.8-1.4,6.2-1.6,10-0.6c0.8,0.2,1.6,0.5,2.4,0.8c1.3,0.5,2.6,1.1,4,1.9c0.1,0.1,0.2,0.1,0.3,0.2c0.6,0.3,1.2,0.7,1.8,1.1
								c1.2,0.8,2.3,1.6,3.4,2.6c0.5,0.4,1,0.9,1.5,1.3c1,0.9,1.9,1.9,2.9,2.9c0.4,0.5,0.8,0.9,1.3,1.4c0.9,1,1.7,2,2.5,3.1
								c0.4,0.5,0.7,1,1.1,1.6c0.8,1.1,1.5,2.2,2.1,3.3c0.3,0.5,0.7,1.1,0.9,1.6c0.7,1.2,1.2,2.3,1.8,3.5c0.3,0.6,0.5,1.1,0.8,1.7
								c0.5,1.2,1,2.5,1.4,3.7c0.2,0.6,0.4,1.2,0.6,1.8c0.4,1.3,0.8,2.7,1,4c0.2,0.6,0.3,1.3,0.4,2c0.2,1.5,0.4,2.9,0.5,4.3
								C367.3,241.4,367.4,241.9,367.4,242.5z"/>
							<g>
								<path class="st31" d="M339.1,198.6l-19.9,11.5l-1.6,0.9l-0.5-1.9l2.6-1.5l17-9.8C337.5,198.1,338.3,198.3,339.1,198.6z"/>
								<path class="st31" d="M345.2,201.9l-24.1,13.9l-0.5-1.9l22.8-13.2C344,201.1,344.6,201.4,345.2,201.9z"/>
								<path class="st31" d="M350.1,205.8l-25.6,14.8l-0.5-1.9l24.6-14.2C349.1,204.9,349.7,205.3,350.1,205.8z"/>
								<path class="st31" d="M354.3,210.1L328,225.2l-0.5-1.9l25.5-14.7C353.4,209.1,353.9,209.6,354.3,210.1z"/>
								<path class="st31" d="M357.8,214.8L331.5,230l-0.5-1.9l25.8-14.9C357.1,213.7,357.5,214.2,357.8,214.8z"/>
								<path class="st31" d="M360.9,219.8l-25.9,15l-0.5-1.9l25.5-14.7C360.3,218.7,360.6,219.2,360.9,219.8z"/>
								<path class="st31" d="M363.5,225l-25,14.5l-0.5-1.9l24.8-14.3C363,223.9,363.2,224.4,363.5,225z"/>
								<path class="st31" d="M365.5,230.6l-23.6,13.6l-0.5-1.9l23.5-13.6C365.1,229.3,365.3,230,365.5,230.6z"/>
								<path class="st31" d="M366.8,236.5l-21.5,12.4l-0.5-1.9l21.6-12.5C366.6,235.2,366.8,235.9,366.8,236.5z"/>
								<path class="st31" d="M367.4,242.5c0,0.1,0,0.3,0,0.4l-18.5,10.7l-0.5-1.9l19-11C367.3,241.4,367.4,241.9,367.4,242.5z"/>
								<path class="st31" d="M366.9,247.8c-0.2,0.9-0.4,1.8-0.7,2.6l-14,8.1l-0.5-1.9L366.9,247.8z"/>
							</g>
							
								<ellipse transform="matrix(0.866 -0.5 0.5 0.866 -71.1926 199.2695)" class="st32" cx="336.2" cy="232.5" rx="19.8" ry="34.3"/>
							<path class="st30" d="M340.7,213.2c-0.8,0-1.7,0-2.5,0c0.9,0.8,1.8,1.6,2.7,2.5l1.5-0.9C341.8,214.2,341.2,213.7,340.7,213.2
								z M319.2,210.1c0,0.1,0,0.1,0,0.2c0.2,0.1,0.4,0.1,0.5,0.1c0.2-0.4,0.4-0.7,0.7-1L319.2,210.1z M340.7,213.2
								c-0.8,0-1.7,0-2.5,0c0.9,0.8,1.8,1.6,2.7,2.5l1.5-0.9C341.8,214.2,341.2,213.7,340.7,213.2z M319.2,210.3
								c0.2,0.1,0.4,0.1,0.5,0.1c0.2-0.4,0.4-0.7,0.7-1l-1.2,0.7C319.2,210.2,319.2,210.2,319.2,210.3z M356,242.8
								c-0.1-0.7-0.2-1.3-0.3-2c-0.2-1.3-0.5-2.7-0.9-4c-0.2-0.6-0.4-1.2-0.6-1.9c-0.4-1.2-0.9-2.5-1.4-3.8
								c-0.2-0.6-0.5-1.2-0.8-1.7c-0.5-1.2-1.1-2.4-1.8-3.5c-0.3-0.6-0.6-1.1-0.9-1.6c-0.7-1.1-1.4-2.2-2.1-3.3
								c-0.3-0.5-0.7-1-1.1-1.5c-0.8-1.1-1.6-2.1-2.5-3.1c-0.4-0.5-0.9-1-1.3-1.4c-0.5-0.6-1.1-1.1-1.6-1.6
								c-0.4-0.4-0.9-0.8-1.3-1.2c-0.5-0.5-1-0.9-1.5-1.3c-1.2-0.9-2.4-1.8-3.6-2.5c0,0,0,0-0.1-0.1c-0.6-0.4-1.3-0.7-1.9-1
								c-1.8-0.8-3.5-1.4-5.1-1.6c-0.6-0.1-1.1-0.1-1.7-0.1c-0.9,0-1.6,0.1-2.4,0.3c-1.3,0.4-2.4,1-3.3,1.8l-0.2,0.2l0,0
								c-0.6,0.6-1.1,1.4-1.5,2.1c-0.2,0.3-0.3,0.7-0.5,1v0c-1.1,2.7-1.3,5.7-1.3,7.6c0,13.2,9.3,29.9,20.6,37.3
								c0.5,0.4,1,0.7,1.5,1c3.1,1.8,6.1,2.8,8.7,2.8c0.9,0,1.8-0.1,2.5-0.3c1-0.3,1.8-0.7,2.6-1.3c0.4-0.3,0.7-0.6,1-0.9
								c0.6-0.6,1-1.3,1.4-2.1v0c0.9-1.7,1.3-3.7,1.5-5.4c0.1-0.8,0.2-1.6,0.2-2.3c0-0.3,0-0.5,0-0.7
								C356.2,245.3,356.2,244,356,242.8z M354.2,250.5c-0.4,2.3-1.3,4.7-3.2,6.1c-1,0.7-2.3,1.2-3.9,1.2c-0.6,0-1.1,0-1.7-0.1h0
								c-1.6-0.3-3.4-0.9-5.2-1.9h0c-0.3-0.1-0.6-0.3-0.9-0.5c-11.5-6.6-21.3-23.5-21.3-36.8c0-1.6,0.2-4.2,1-6.5
								c0.2-0.5,0.5-1.1,0.7-1.5c0.2-0.4,0.4-0.7,0.7-1l0,0c0.9-1.1,2.1-1.9,3.8-2.2h0c0.4-0.1,0.8-0.1,1.2-0.1c1.5,0,3.2,0.4,5,1.1
								c0.7,0.3,1.4,0.6,2.1,1c0.3,0.1,0.5,0.3,0.8,0.4c1,0.6,2,1.2,2.9,1.9c0.5,0.4,1.1,0.8,1.6,1.3c0.1,0.1,0.2,0.2,0.3,0.3h0
								c0.9,0.8,1.8,1.6,2.7,2.5c0.5,0.5,0.9,0.9,1.3,1.4c0.9,1,1.7,2,2.5,3.1c0.4,0.5,0.7,1,1.1,1.5c0.8,1.1,1.5,2.2,2.1,3.3
								c0.3,0.5,0.6,1.1,0.9,1.6c0.6,1.2,1.2,2.4,1.8,3.5c0.3,0.6,0.5,1.1,0.8,1.7c0.5,1.2,1,2.5,1.4,3.8v0c0.2,0.6,0.4,1.2,0.6,1.9
								c0.4,1.4,0.7,2.7,0.8,4.1c0.1,0.7,0.2,1.4,0.3,2c0.1,0.9,0.1,1.9,0.1,2.8c0,0.5,0,1.1-0.1,1.7
								C354.4,248.9,354.3,249.7,354.2,250.5z M319.2,210.1c0,0.1,0,0.1,0,0.2c0.2,0.1,0.4,0.1,0.5,0.1c0.2-0.4,0.4-0.7,0.7-1
								L319.2,210.1z M340.7,213.2c-0.8,0-1.7,0-2.5,0c0.9,0.8,1.8,1.6,2.7,2.5l1.5-0.9C341.8,214.2,341.2,213.7,340.7,213.2z"/>
							<g>
								<path class="st30" d="M343,236.8c-0.2-0.6-0.5-1.1-0.9-1.7c-0.7-1.1-1.6-2.1-2.6-3.1c-0.5-0.5-1-0.9-1.5-1.3
									c-0.4-0.3-0.8-0.6-1.1-0.9c-0.9-0.6-1.7-1.2-2.2-1.8c-0.4-0.5-0.6-1-0.6-1.6c0-0.1,0-0.2,0-0.3c0.1-0.3,0.4-0.5,0.7-0.4
									c0.4,0,1,0.2,1.5,0.6c0.2,0.1,0.4,0.2,0.6,0.4c1.1,0.7,2.1,1.6,3,2.8c0.1,0.1,0.2,0.3,0.3,0.4l1.9-1.7l0,0h0l0.5-0.4
									c-0.8-1.1-1.6-2.1-2.5-3c-0.5-0.5-1-0.9-1.5-1.3c-0.1-0.1-0.3-0.2-0.5-0.4v-2.5l-1.3-0.7l-1.9-1.1l-0.9-0.5v2.5
									c-0.7-0.2-1.3-0.4-1.9-0.4h0c-1.3-0.1-2.4,0.4-2.8,1.6c-0.2,0.5-0.2,1-0.2,1.6c0,0.2,0,0.5,0,0.7c0.1,2.2,0.9,3.9,2.1,5.4
									l0,0c0,0,0,0,0,0.1c0.8,1,1.8,2,3,2.9c0.5,0.4,1.1,0.8,1.7,1.2c0,0,0,0,0.1,0c1.5,1,2.5,2,2.7,2.9c0.1,0.2,0.1,0.3,0.1,0.5
									c0,0.6-0.3,0.9-0.9,0.8c-0.5,0-1-0.2-1.8-0.6c-1.4-0.8-3.3-2.2-5-5l-2.6,2c1.8,3.2,3.4,5,5.5,6.5v2.6l4.1,2.3v-2.7
									c1.3,0.5,2.5,0.7,3.5,0.4c1.1-0.3,1.8-1.2,1.9-2.8v0c0-0.2,0-0.4,0-0.7C343.7,239.1,343.5,237.9,343,236.8z"/>
							</g>
						</g>
					</g>
					<g>
						
							<linearGradient id="SVGID_20_" gradientUnits="userSpaceOnUse" x1="268.1276" y1="158.7887" x2="346.3344" y2="158.7887" gradientTransform="matrix(1 0 0 -1 0 406)">
							<stop  offset="1.694780e-03" style="stop-color:#00D4C8"/>
							<stop  offset="1" style="stop-color:#00D2C7;stop-opacity:0"/>
						</linearGradient>
						<path class="st33" d="M383.8,281.2v-93.5c0,6.5-4.3,13-12.9,18c-17.2,9.9-45.2,9.9-62.4,0c-8.6-5-12.9-11.5-12.9-18v93.5l0,0
							c0,6.5,4.3,13,12.9,18c17.2,10,45.2,10,62.4,0C379.5,294.3,383.8,287.8,383.8,281.2z"/>
						
							<linearGradient id="SVGID_21_" gradientUnits="userSpaceOnUse" x1="401.8502" y1="158.7887" x2="346.9547" y2="158.7887" gradientTransform="matrix(1 0 0 -1 0 406)">
							<stop  offset="1.694780e-03" style="stop-color:#00D4C8"/>
							<stop  offset="1" style="stop-color:#00D2C7;stop-opacity:0"/>
						</linearGradient>
						<path class="st34" d="M383.8,281.2v-93.5c0,6.5-4.3,13-12.9,18c-17.2,9.9-45.2,9.9-62.4,0c-8.6-5-12.9-11.5-12.9-18v93.5l0,0
							c0,6.5,4.3,13,12.9,18c17.2,10,45.2,10,62.4,0C379.5,294.3,383.8,287.8,383.8,281.2z"/>
						
							<linearGradient id="SVGID_22_" gradientUnits="userSpaceOnUse" x1="339.69" y1="259.1956" x2="339.69" y2="171.869" gradientTransform="matrix(1 0 0 -1 0 406)">
							<stop  offset="1.694780e-03" style="stop-color:#00D4C8"/>
							<stop  offset="1" style="stop-color:#00D2C7;stop-opacity:0"/>
						</linearGradient>
						<ellipse class="st35" cx="339.7" cy="187.7" rx="44.1" ry="25.5"/>
					</g>
				</g>
				<path class="st10" d="M302.2,240.9L302.2,240.9c-1.9-1.1-3-3.1-3-5.2v-27c0-0.9,1-1.4,1.7-1l0,0c1.9,1.1,3.1,3.1,3.1,5.3v26.8
					C304,240.8,303,241.4,302.2,240.9z"/>
				<path class="st10" d="M302.2,259.1L302.2,259.1c-1.9-1.1-3-3.1-3-5.2v-5.8c0-0.9,1-1.5,1.7-1l0,0c1.9,1.1,3.1,3.1,3.1,5.3v5.6
					C304,259,303,259.6,302.2,259.1z"/>
			</g>
			<g>
				<path class="st8" d="M139.4,202.3v-39.5H51.2v39.5l0,0c0,6.5,4.3,13,12.9,18c17.2,10,45.2,10,62.4,0
					C135.1,215.4,139.4,208.8,139.4,202.3z"/>
				
					<linearGradient id="SVGID_23_" gradientUnits="userSpaceOnUse" x1="88.7236" y1="210.6787" x2="155.0423" y2="210.6787" gradientTransform="matrix(1 0 0 -1 0 406)">
					<stop  offset="0" style="stop-color:#FFFFFF;stop-opacity:0"/>
					<stop  offset="1" style="stop-color:#662D8D"/>
				</linearGradient>
				<path class="st36" d="M139.4,202.3v-39.5H51.2v39.5l0,0c0,6.5,4.3,13,12.9,18c17.2,10,45.2,10,62.4,0
					C135.1,215.4,139.4,208.8,139.4,202.3z"/>
				<ellipse class="st10" cx="95.3" cy="162.9" rx="44.1" ry="25.5"/>
				<g>
					
						<linearGradient id="SVGID_24_" gradientUnits="userSpaceOnUse" x1="95.3" y1="289.0082" x2="95.3" y2="201.6816" gradientTransform="matrix(1 0 0 -1 0 406)">
						<stop  offset="1.694780e-03" style="stop-color:#00D4C8"/>
						<stop  offset="1" style="stop-color:#00D2C7;stop-opacity:0"/>
					</linearGradient>
					<ellipse class="st37" cx="95.3" cy="157.9" rx="44.1" ry="25.5"/>
					<g>
						<circle class="st38" cx="124" cy="86.9" r="2.9"/>
						<circle class="st38" cx="121.1" cy="150.2" r="2.9"/>
						<path class="st38" d="M73.6,127.6c0,1.6-1.3,2.9-2.9,2.9s-2.9-1.3-2.9-2.9s1.3-2.9,2.9-2.9S73.6,126,73.6,127.6z"/>
						<path class="st38" d="M120,74.5c0,1-0.8,1.8-1.9,1.8c-1,0-1.9-0.8-1.9-1.8s0.8-1.8,1.9-1.8C119.2,72.7,120,73.5,120,74.5z"/>
						<path class="st38" d="M111.7,157.9c0,1-0.8,1.9-1.9,1.9s-1.9-0.8-1.9-1.9s0.8-1.9,1.9-1.9S111.7,156.9,111.7,157.9z"/>
						<path class="st38" d="M72.2,71.9c0,1-0.8,1.8-1.9,1.8s-1.9-0.8-1.9-1.8s0.8-1.8,1.9-1.8C71.4,70,72.2,70.8,72.2,71.9z"/>
						<path class="st38" d="M133.8,126.3c0,1-0.8,1.9-1.9,1.9s-1.9-0.8-1.9-1.9s0.8-1.9,1.9-1.9S133.8,125.3,133.8,126.3z"/>
						<path class="st38" d="M67.6,153.2c0,1-0.8,1.9-1.9,1.9s-1.9-0.8-1.9-1.9s0.8-1.9,1.9-1.9C66.8,151.3,67.6,152.1,67.6,153.2z"
							/>
						<g>
							<path class="st38" d="M123,119.2c0,0.1,0,0.3,0,0.4c0,1.7-0.2,3.4-0.5,4.8c-0.2,0.9-0.4,1.8-0.7,2.6c-1.1,3.4-3,6-5.5,7.6
								l0,0l-0.2,0.1c-0.1,0.1-0.3,0.1-0.4,0.2l-6.8,3.9l-1.5-2.6c-2.7-0.4-5.5-1.4-8.6-3.1c-13.4-7.7-24.2-26.5-24.2-42
								c0-1.6,0.1-3,0.3-4.4c0.1-0.9,0.3-1.7,0.5-2.5c0.2-0.7,0.4-1.3,0.6-1.9l-1.6-2.8l6.9-4c0.2-0.1,0.5-0.3,0.7-0.4l0.4-0.2l0,0
								c2.8-1.3,6.2-1.6,10-0.6c0.8,0.2,1.6,0.5,2.4,0.8c1.3,0.5,2.6,1.1,4,1.9c0.1,0.1,0.2,0.1,0.3,0.2c0.6,0.3,1.2,0.7,1.8,1.1
								c1.2,0.8,2.3,1.6,3.4,2.6c0.5,0.4,1,0.8,1.5,1.3c1,0.9,1.9,1.9,2.9,2.9c0.4,0.5,0.9,0.9,1.3,1.4c0.9,1,1.7,2,2.5,3.1
								c0.4,0.5,0.7,1,1.1,1.6c0.8,1.1,1.5,2.2,2.1,3.3c0.3,0.5,0.6,1.1,0.9,1.6c0.6,1.2,1.2,2.3,1.8,3.5c0.3,0.6,0.5,1.1,0.8,1.7
								c0.5,1.2,1,2.5,1.4,3.7c0.2,0.6,0.4,1.2,0.6,1.8c0.4,1.3,0.8,2.7,1,4c0.1,0.6,0.3,1.3,0.4,2c0.2,1.4,0.4,2.9,0.5,4.3
								C123,118,123,118.6,123,119.2z"/>
							
								<linearGradient id="SVGID_25_" gradientUnits="userSpaceOnUse" x1="92.2686" y1="313.2838" x2="118.1072" y2="263.5385" gradientTransform="matrix(1 0 0 -1 0 406)">
								<stop  offset="0" style="stop-color:#FFFFFF;stop-opacity:0"/>
								<stop  offset="1" style="stop-color:#662D8D"/>
							</linearGradient>
							<path class="st39" d="M123,119.2c0,0.1,0,0.3,0,0.4c0,1.7-0.2,3.4-0.5,4.8c-0.2,0.9-0.4,1.8-0.7,2.6c-1.1,3.4-3,6-5.5,7.6
								l0,0l-0.2,0.1c-0.1,0.1-0.3,0.1-0.4,0.2l-6.8,3.9l-1.5-2.6c-2.7-0.4-5.5-1.4-8.6-3.1c-13.4-7.7-24.2-26.5-24.2-42
								c0-1.6,0.1-3,0.3-4.4c0.1-0.9,0.3-1.7,0.5-2.5c0.2-0.7,0.4-1.3,0.6-1.9l-1.6-2.8l6.9-4c0.2-0.1,0.5-0.3,0.7-0.4l0.4-0.2l0,0
								c2.8-1.3,6.2-1.6,10-0.6c0.8,0.2,1.6,0.5,2.4,0.8c1.3,0.5,2.6,1.1,4,1.9c0.1,0.1,0.2,0.1,0.3,0.2c0.6,0.3,1.2,0.7,1.8,1.1
								c1.2,0.8,2.3,1.6,3.4,2.6c0.5,0.4,1,0.8,1.5,1.3c1,0.9,1.9,1.9,2.9,2.9c0.4,0.5,0.9,0.9,1.3,1.4c0.9,1,1.7,2,2.5,3.1
								c0.4,0.5,0.7,1,1.1,1.6c0.8,1.1,1.5,2.2,2.1,3.3c0.3,0.5,0.6,1.1,0.9,1.6c0.6,1.2,1.2,2.3,1.8,3.5c0.3,0.6,0.5,1.1,0.8,1.7
								c0.5,1.2,1,2.5,1.4,3.7c0.2,0.6,0.4,1.2,0.6,1.8c0.4,1.3,0.8,2.7,1,4c0.1,0.6,0.3,1.3,0.4,2c0.2,1.4,0.4,2.9,0.5,4.3
								C123,118,123,118.6,123,119.2z"/>
							
								<ellipse transform="matrix(0.866 -0.5 0.5 0.866 -42.2742 60.5545)" class="st40" cx="91.9" cy="109.2" rx="19.8" ry="34.3"/>
							<ellipse transform="matrix(0.866 -0.5 0.5 0.866 -42.2744 60.5545)" class="st41" cx="91.9" cy="109.2" rx="15.6" ry="27"/>
							
								<ellipse transform="matrix(0.866 -0.5 0.5 0.866 -42.2743 60.5545)" class="st41" cx="91.9" cy="109.2" rx="10.9" ry="18.8"/>
							<path class="st42" d="M99.8,113.7c0,5-3.5,7.1-7.9,4.6c-4.4-2.5-7.9-8.6-7.9-13.7s3.5-7.1,7.9-4.6
								C96.2,102.6,99.8,108.7,99.8,113.7z"/>
							<path class="st10" d="M95,110.9c0,2-1.4,2.8-3.1,1.8s-3.1-3.4-3.1-5.4s1.4-2.8,3.1-1.8C93.6,106.6,95,109,95,110.9z"/>
						</g>
					</g>
					<g>
						
							<linearGradient id="SVGID_26_" gradientUnits="userSpaceOnUse" x1="23.74" y1="282.1088" x2="101.9466" y2="282.1088" gradientTransform="matrix(1 0 0 -1 0 406)">
							<stop  offset="1.694780e-03" style="stop-color:#00D4C8"/>
							<stop  offset="1" style="stop-color:#00D2C7;stop-opacity:0"/>
						</linearGradient>
						<path class="st43" d="M139.4,157.9V64.4c0,6.5-4.3,13-12.9,18c-17.2,9.9-45.2,9.9-62.4,0c-8.6-5-12.9-11.5-12.9-18v93.5l0,0
							c0,6.5,4.3,13,12.9,18c17.2,9.9,45.2,9.9,62.4,0C135.1,170.9,139.4,164.4,139.4,157.9z"/>
						
							<linearGradient id="SVGID_27_" gradientUnits="userSpaceOnUse" x1="157.4625" y1="282.1088" x2="102.567" y2="282.1088" gradientTransform="matrix(1 0 0 -1 0 406)">
							<stop  offset="1.694780e-03" style="stop-color:#00D4C8"/>
							<stop  offset="1" style="stop-color:#00D2C7;stop-opacity:0"/>
						</linearGradient>
						<path class="st44" d="M139.4,157.9V64.4c0,6.5-4.3,13-12.9,18c-17.2,9.9-45.2,9.9-62.4,0c-8.6-5-12.9-11.5-12.9-18v93.5l0,0
							c0,6.5,4.3,13,12.9,18c17.2,9.9,45.2,9.9,62.4,0C135.1,170.9,139.4,164.4,139.4,157.9z"/>
						
							<linearGradient id="SVGID_28_" gradientUnits="userSpaceOnUse" x1="95.3" y1="382.5223" x2="95.3" y2="295.1957" gradientTransform="matrix(1 0 0 -1 0 406)">
							<stop  offset="1.694780e-03" style="stop-color:#00D4C8"/>
							<stop  offset="1" style="stop-color:#00D2C7;stop-opacity:0"/>
						</linearGradient>
						<ellipse class="st45" cx="95.3" cy="64.4" rx="44.1" ry="25.5"/>
					</g>
				</g>
				<path class="st10" d="M57.8,117.6L57.8,117.6c-1.9-1.1-3-3.1-3-5.2v-27c0-0.9,1-1.4,1.7-1l0,0c1.9,1.1,3.1,3.1,3.1,5.3v26.8
					C59.6,117.5,58.6,118.1,57.8,117.6z"/>
				<path class="st10" d="M57.8,135.8L57.8,135.8c-1.9-1.1-3-3.1-3-5.2v-5.8c0-0.9,1-1.4,1.7-1l0,0c1.9,1.1,3.1,3.1,3.1,5.3v5.6
					C59.6,135.7,58.6,136.3,57.8,135.8z"/>
			</g>
			<g>
				<path class="st46" d="M229.9,269.5c0,0-7.3,7.8-7.8,15.5l1.4,3l2.9-2.1c0,0,2.1-10.1,5.9-13.1L229.9,269.5z"/>
				<path class="st47" d="M247,360.3c0,0,0.5,4.8-1.8,4.5c-2.7-0.3-11.2-6-9.3-7.8c1.9-1.8,8.9,1.5,8.9,1.5L247,360.3z"/>
				<path class="st47" d="M231.9,367.4c0,0,0.5,4.8-1.8,4.5c-2.7-0.3-11.2-6-9.3-7.8c1.9-1.8,8.9,1.5,8.9,1.5L231.9,367.4z"/>
				<rect x="234.1" y="247.9" class="st48" width="5" height="7.1"/>
				<path class="st46" d="M228.7,286.1c0,0-8.1,18.4-2,81.7c0,0.3,0.2,0.6,0.5,0.8c1.1,0.6,3.7,1.7,5.1-1.9c0-0.1,0.1-0.2,0.1-0.3
					l5.3-66.3c0-1.1,0.6-1.1,0.7,0l3.2,60.6c0,0.5,0.3,0.9,0.7,1c1.4,0.5,4.5,1.1,5.1-3.3c0,0,5.5-65.5-0.9-74.4L228.7,286.1z"/>
				<path class="st47" d="M246.5,282c-0.1,0.3-0.3,0.5-0.5,0.8c-1.8,1.9-6.8,5.3-16.7,1.8c-0.2-0.1-0.4-0.2-0.6-0.4v2
					c0.2,0.1,0.4,0.3,0.6,0.4c9.9,3.5,14.8,0.1,16.7-1.7c0.2-0.2,0.4-0.5,0.5-0.8V282z"/>
				<path class="st10" d="M266.6,221.9c0,0,0-4.3,0.6-4.4c0.4-0.1,0.4,1.4,0.4,1.4s0.5-3.2,1.2-3c0.2,0.1-0.1,2-0.1,2s0.3-1.1,2.1,0
					c0.5,0.4,0.4,1.4-1.7,4.7L266.6,221.9z"/>
				<path class="st49" d="M245.4,250.6c0,0,15-1.3,21-29.1c0,0,1.6-0.3,2.9,1c0,0-0.9,33.4-21.7,39.9L245.4,250.6z"/>
				<path class="st50" d="M234.1,252.6l5-1.1l7.9-1c1.9-0.2,3.3,2.5,3.5,5.5c0.3,5.7-3.6,25.1-3.6,25.1c0,0.8-0.4,1.5-0.9,2.1
					c-1.8,1.9-6.8,5.3-16.7,1.8c-0.6-0.2-1.1-0.8-1.2-1.4l-3.7-23c-0.2-1.2,0.3-2.4,1.3-3.1L234.1,252.6z"/>
				<path class="st10" d="M227.8,239c0,0,0.6,6.9,3.4,10.4c2.8,3.5,8.3-2.3,9.1-4c0.8-1.7,2.1-12.3-6.4-12.3
					C228.5,233.1,227.5,236.5,227.8,239z"/>
				<path class="st46" d="M236,243.3c0,0-2.9-2-3.9-5.5c0,0-0.6-0.4-4.1,2.5c0,0-3.9,0-2.1-4.2s9.4-9.4,13-5.2c0,0,6.9-1.1,5.6,7.8
					c-1.8,11.8-7.3,9.9-8.7,7.2C234.4,243.3,236,243.3,236,243.3z"/>
				<path class="st10" d="M234.2,241.9c0,0,1.1-2.3,2.1-0.9c1,1.4-0.2,4.1-2.3,4.4L234.2,241.9z"/>
				<polygon class="st46" points="202.9,250.6 213.6,261.2 224.3,254.8 213.6,243.9 				"/>
				<polyline class="st51" points="212.7,256.2 212.7,253.9 214.9,253.9 214.9,248.8 				"/>
				<polyline class="st51" points="212.8,250.2 214.8,248.2 217,250.5 				"/>
				<path class="st10" d="M207.5,255.1c0-0.1,0.8-1,1.5-1.6c0.2-0.2,0.5,0,0.4,0.3l-0.5,1.6c0,0,2.3-0.6,1,3.1l-2.2,0.6L207.5,255.1
					z"/>
				<path class="st49" d="M210.2,258.4c0,0,11.7,21,4.7,22.3c-7,1.3-7.3-21.6-7.3-21.6S208.4,258.1,210.2,258.4z"/>
				<path class="st49" d="M225.7,257.5c0,0-3.1,1.6-7.5,7.8c-5.9,8.4-8.6,13.5-3.1,15.3c1.4,0.5,11-9.6,11-9.6
					S230,262.6,225.7,257.5z"/>
				<path class="st49" d="M233,253.2l1-1.7c0,0,1.7-1,5-1.1l1.2,1C240.3,251.4,240,252.5,233,253.2z"/>
			</g>
			<g>
				<polygon class="st8" points="130.6,232.5 92.6,318.1 89.2,316 89.2,266.3 				"/>
				<polygon class="st8" points="134,234.5 134,294.2 92.6,318.1 92.6,268.3 				"/>
				
					<linearGradient id="SVGID_29_" gradientUnits="userSpaceOnUse" x1="93.112" y1="170.1259" x2="139.9595" y2="76.431" gradientTransform="matrix(1 0 0 -1 0 406)">
					<stop  offset="0" style="stop-color:#FFFFFF;stop-opacity:0"/>
					<stop  offset="1" style="stop-color:#662D8D"/>
				</linearGradient>
				<polygon class="st52" points="134,234.5 134,294.2 92.6,318.1 92.6,268.3 				"/>
			</g>
			<g>
				<polygon class="st8" points="197.2,270.9 159.3,356.5 155.8,354.5 155.8,304.7 				"/>
				<polygon class="st8" points="200.7,272.9 200.7,332.6 159.3,356.5 159.3,306.8 				"/>
				
					<linearGradient id="SVGID_30_" gradientUnits="userSpaceOnUse" x1="125.0063" y1="91.28" x2="252.3133" y2="91.28" gradientTransform="matrix(1 0 0 -1 0 406)">
					<stop  offset="0" style="stop-color:#FFFFFF;stop-opacity:0"/>
					<stop  offset="1" style="stop-color:#662D8D"/>
				</linearGradient>
				<polygon class="st53" points="200.7,272.9 200.7,332.6 159.3,356.5 159.3,306.8 				"/>
			</g>
			<polygon class="st8" points="159.3,310.1 89.2,269.6 200.7,272.9 200.7,276.3 			"/>
			
				<linearGradient id="SVGID_31_" gradientUnits="userSpaceOnUse" x1="125.0062" y1="116.165" x2="252.3126" y2="116.165" gradientTransform="matrix(1 0 0 -1 0 406)">
				<stop  offset="0" style="stop-color:#FFFFFF;stop-opacity:0"/>
				<stop  offset="1" style="stop-color:#662D8D"/>
			</linearGradient>
			<polygon class="st54" points="159.3,310.1 89.2,269.6 200.7,272.9 200.7,276.3 			"/>
			<polygon class="st10" points="159.3,306.8 89.2,266.3 130.6,232.5 200.7,272.9 			"/>
			<polygon class="st46" points="158.3,301.2 97.3,265.9 131.5,238 192.5,273.2 			"/>
			
				<linearGradient id="SVGID_32_" gradientUnits="userSpaceOnUse" x1="140.105" y1="164.9962" x2="136.8307" y2="132.7209" gradientTransform="matrix(1 0 0 -1 0 406)">
				<stop  offset="3.946110e-03" style="stop-color:#FFFFFF;stop-opacity:0"/>
				<stop  offset="1" style="stop-color:#FDC870"/>
			</linearGradient>
			<path class="st55" d="M142.9,270.3l-23.3-13.4c-0.5-0.3-0.6-1.1-0.1-1.5l12.3-10c0.6-0.5,1.6-0.6,2.3-0.2l22.9,13.2
				c0.7,0.4,0.8,1.4,0.1,1.9l-12,9.8C144.6,270.7,143.6,270.7,142.9,270.3z"/>
			
				<linearGradient id="SVGID_33_" gradientUnits="userSpaceOnUse" x1="129.0608" y1="145.2154" x2="120.8365" y2="129.6175" gradientTransform="matrix(1 0 0 -1 0 406)">
				<stop  offset="0" style="stop-color:#BA68C8;stop-opacity:0"/>
				<stop  offset="1" style="stop-color:#BA68C8"/>
			</linearGradient>
			<path class="st56" d="M132.5,278.6l-23.3-13.4c-0.5-0.3-0.6-1.1-0.1-1.5l6.1-4.8c0.6-0.5,1.6-0.6,2.3-0.2l22.9,13.2
				c0.7,0.4,0.8,1.4,0.1,1.9l-5.8,4.6C134.1,279,133.2,279.1,132.5,278.6z"/>
			<g>
				
					<linearGradient id="SVGID_34_" gradientUnits="userSpaceOnUse" x1="148.3812" y1="133.076" x2="140.7276" y2="118.5607" gradientTransform="matrix(1 0 0 -1 0 406)">
					<stop  offset="1.694780e-03" style="stop-color:#00D4C8"/>
					<stop  offset="1" style="stop-color:#00D2C7;stop-opacity:0"/>
				</linearGradient>
				<path class="st57" d="M144.2,285.7l-7.6-4.3c-0.5-0.3-0.6-1.1-0.1-1.5l6.1-4.8c0.6-0.5,1.6-0.6,2.3-0.2l7.3,4.1
					c0.7,0.4,0.8,1.4,0.1,1.9l-5.8,4.6C145.9,286,145,286.1,144.2,285.7z"/>
				
					<linearGradient id="SVGID_35_" gradientUnits="userSpaceOnUse" x1="160.4608" y1="133.3704" x2="153.0593" y2="109.3154" gradientTransform="matrix(1 0 0 -1 0 406)">
					<stop  offset="1.694780e-03" style="stop-color:#EF5350"/>
					<stop  offset="1" style="stop-color:#EF5350;stop-opacity:0"/>
				</linearGradient>
				<path class="st58" d="M156.1,292.4l-8.1-4.8c-0.5-0.3-0.6-1.1-0.1-1.5l6.1-4.8c0.6-0.5,1.6-0.6,2.3-0.2l7.8,4.6
					c0.7,0.4,0.8,1.4,0.1,1.9l-5.8,4.6C157.8,292.7,156.9,292.8,156.1,292.4z"/>
			</g>
			<polygon class="st8" points="159.3,310.1 159.3,306.8 89.2,266.3 89.2,269.6 			"/>
			<path class="st59" d="M124.2,256.1c0.1-0.1,11.3-0.9,11.3-0.9l2.2,3.9h13.5l-2.9-1.4"/>
			<line class="st59" x1="151.2" y1="259.2" x2="151.2" y2="261.5"/>
			<ellipse class="st40" cx="163.8" cy="263.8" rx="1.4" ry="0.8"/>
			<ellipse class="st60" cx="167.8" cy="266.1" rx="1.4" ry="0.8"/>
			<path class="st40" d="M172.9,269c-0.5,0.3-1.4,0.3-2,0s-0.5-0.8,0-1.1s1.4-0.3,2,0C173.5,268.2,173.5,268.7,172.9,269z"/>
			<path class="st40" d="M177,271.4c-0.5,0.3-1.4,0.3-2,0s-0.5-0.8,0-1.1s1.4-0.3,2,0C177.5,270.5,177.5,271,177,271.4z"/>
			<path class="st40" d="M181.1,273.7c-0.5,0.3-1.4,0.3-2,0s-0.5-0.8,0-1.1s1.4-0.3,2,0C181.6,272.9,181.6,273.4,181.1,273.7z"/>
			<path class="st40" d="M161.4,266.9c-0.5,0.3-1.4,0.3-2,0s-0.5-0.8,0-1.1s1.4-0.3,2,0C162,266.1,162,266.6,161.4,266.9z"/>
			<path class="st40" d="M165.5,269.3c-0.5,0.3-1.4,0.3-2,0s-0.5-0.8,0-1.1s1.4-0.3,2,0C166,268.4,166,269,165.5,269.3z"/>
			<path class="st40" d="M169.6,271.6c-0.5,0.3-1.4,0.3-2,0s-0.5-0.8,0-1.1s1.4-0.3,2,0C170.1,270.8,170.1,271.3,169.6,271.6z"/>
			<path class="st60" d="M173.6,273.9c-0.5,0.3-1.4,0.3-2,0s-0.5-0.8,0-1.1s1.4-0.3,2,0C174.2,273.1,174.2,273.6,173.6,273.9z"/>
			<path class="st60" d="M177.7,276.2c-0.5,0.3-1.4,0.3-2,0s-0.5-0.8,0-1.1s1.4-0.3,2,0C178.3,275.4,178.3,275.9,177.7,276.2z"/>
			<path class="st60" d="M158.1,269.5c-0.5,0.3-1.4,0.3-2,0s-0.5-0.8,0-1.1s1.4-0.3,2,0C158.6,268.6,158.6,269.2,158.1,269.5z"/>
			<path class="st40" d="M162.1,271.8c-0.5,0.3-1.4,0.3-2,0s-0.5-0.8,0-1.1s1.4-0.3,2,0S162.7,271.5,162.1,271.8z"/>
			<ellipse class="st60" cx="165.2" cy="273.6" rx="1.4" ry="0.8"/>
			<path class="st40" d="M170.3,276.5c-0.5,0.3-1.4,0.3-2,0s-0.5-0.8,0-1.1s1.4-0.3,2,0S170.8,276.1,170.3,276.5z"/>
			<path class="st40" d="M174.4,278.8c-0.5,0.3-1.4,0.3-2,0s-0.5-0.8,0-1.1s1.4-0.3,2,0C174.9,278,174.9,278.5,174.4,278.8z"/>
			<path class="st40" d="M154.7,272c-0.5,0.3-1.4,0.3-2,0s-0.5-0.8,0-1.1s1.4-0.3,2,0S155.2,271.7,154.7,272z"/>
			<path class="st40" d="M158.8,274.4c-0.5,0.3-1.4,0.3-2,0s-0.5-0.8,0-1.1s1.4-0.3,2,0S159.3,274,158.8,274.4z"/>
			<path class="st40" d="M162.9,276.7c-0.5,0.3-1.4,0.3-2,0s-0.5-0.8,0-1.1s1.4-0.3,2,0S163.4,276.4,162.9,276.7z"/>
			<path class="st40" d="M166.9,279c-0.5,0.3-1.4,0.3-2,0s-0.5-0.8,0-1.1s1.4-0.3,2,0C167.5,278.2,167.5,278.7,166.9,279z"/>
			<path class="st60" d="M171,281.3c-0.5,0.3-1.4,0.3-2,0s-0.5-0.8,0-1.1s1.4-0.3,2,0S171.5,281,171,281.3z"/>
			<ellipse class="st60" cx="150.4" cy="274" rx="1.4" ry="0.8"/>
			<ellipse class="st40" cx="154.4" cy="276.3" rx="1.4" ry="0.8"/>
			<path class="st60" d="M159.5,279.2c-0.5,0.3-1.4,0.3-2,0s-0.5-0.8,0-1.1s1.4-0.3,2,0C160,278.4,160,278.9,159.5,279.2z"/>
			<ellipse class="st40" cx="162.6" cy="281" rx="1.4" ry="0.8"/>
			<path class="st60" d="M167.6,283.9c-0.5,0.3-1.4,0.3-2,0s-0.5-0.8,0-1.1s1.4-0.3,2,0C168.2,283,168.2,283.6,167.6,283.9z"/>
			<g>
				<line class="st61" x1="116.1" y1="261.2" x2="136.7" y2="273.3"/>
				<line class="st61" x1="114.6" y1="262.4" x2="135.2" y2="274.5"/>
				<line class="st61" x1="113" y1="263.6" x2="133.7" y2="275.7"/>
			</g>
			<g>
				<path class="st46" d="M105.5,262.4c0,0,7.7,8.2,8.2,16.3l-1.5,3.2l-3.1-2.3c0,0-2.2-10.7-6.2-13.9L105.5,262.4z"/>
				<path class="st47" d="M87.4,358.2c0,0-0.5,5.1,1.9,4.8c2.9-0.3,11.8-6.3,9.8-8.2c-2-1.9-9.4,1.5-9.4,1.5L87.4,358.2z"/>
				<path class="st47" d="M103.3,365.7c0,0-0.5,5.1,1.9,4.8c2.9-0.3,11.8-6.3,9.8-8.2c-2-1.9-9.4,1.5-9.4,1.5L103.3,365.7z"/>
				<rect x="95.7" y="239.6" class="st10" width="5.3" height="7.5"/>
				<path class="st46" d="M106.7,279.9c0,0,8.5,19.5,2.1,86.2c0,0.3-0.2,0.6-0.5,0.8c-1.1,0.6-4,1.8-5.4-2c0-0.1-0.1-0.2-0.1-0.3
					l-5.5-69.9c0-1.1-0.6-1.2-0.7-0.1l-3.4,63.9c0,0.5-0.3,0.9-0.8,1.1c-1.5,0.6-4.8,1.2-5.4-3.5c0,0-5.8-69.2,1-78.6L106.7,279.9z"
					/>
				<path class="st47" d="M87.9,275.5c0.1,0.3,0.3,0.6,0.6,0.8c1.9,2,7.2,5.6,17.6,1.8c0.2-0.1,0.4-0.2,0.6-0.4v2.1
					c-0.2,0.2-0.4,0.3-0.6,0.4c-10.4,3.7-15.6,0.1-17.6-1.8c-0.2-0.2-0.4-0.5-0.6-0.8V275.5z"/>
				<path class="st50" d="M101,244.5l-5.3-1.2l-8.4-1.1c-2.1-0.3-3.5,2.7-3.7,5.9c-0.3,6,3.8,26.5,3.8,26.5c0.1,0.8,0.4,1.6,1,2.2
					c1.9,2,7.2,5.6,17.6,1.9c0.7-0.2,1.1-0.8,1.2-1.5l3.9-24.2c0.2-1.3-0.3-2.5-1.4-3.3L101,244.5z"/>
				<path class="st10" d="M107.6,230.2c0,0-0.6,7.2-3.6,11c-3,3.7-8.8-2.4-9.6-4.2s-2.3-13,6.7-13
					C106.9,224,107.9,227.6,107.6,230.2z"/>
				<path class="st46" d="M99,234.7c0,0,3-2.1,4.1-5.8c0,0,0.7-0.4,4.3,2.7c0,0,4.1,0,2.2-4.4s-9.9-9.9-13.7-5.5
					c0,0-7.3-1.2-5.9,8.2c1.9,12.5,7.7,10.4,9.2,7.6C100.6,234.7,99,234.7,99,234.7z"/>
				<path class="st10" d="M100.9,233.2c0,0-1.2-2.4-2.2-1s0.2,4.3,2.4,4.7L100.9,233.2z"/>
				<path class="st10" d="M144.6,275.8c0.1,0,0.8,1.1,1.3,1.9c0.1,0.2-0.1,0.5-0.4,0.4l-1.5-0.8c0,0,0.1,2.5-3.4,0.3l-0.1-2.4
					L144.6,275.8z"/>
				<path class="st49" d="M141.3,275.1c0,0-22-12.5-23.5-5.2c-1.5,7.3,22.7,7.9,22.7,7.9S141.6,277.1,141.3,275.1z"/>
				<path class="st49" d="M109.8,249.7c0,0,3.3,1.7,7.9,8.2c6.2,8.9,9.1,14.2,3.3,16.2c-1.5,0.5-11.6-10.1-11.6-10.1
					S105.3,255.1,109.8,249.7z"/>
				<path class="st49" d="M102.1,245.2l-1.1-1.8c0,0-1.8-1.1-5.3-1.2l-1.3,1.1C94.5,243.2,94.7,244.5,102.1,245.2z"/>
			</g>
		</g>
		
			<linearGradient id="SVGID_36_" gradientUnits="userSpaceOnUse" x1="31.895" y1="1457.6304" x2="31.895" y2="1569.7914" gradientTransform="matrix(-0.999 -4.390000e-02 -4.390000e-02 0.999 457.6831 -1369.5518)">
			<stop  offset="1.860120e-03" style="stop-color:#AC24B9"/>
			<stop  offset="1" style="stop-color:#2E2142"/>
		</linearGradient>
		<path class="st62" d="M340.6,111c4.4,11.8,20.6,27,33.9,21.3c6.6-2.8,10.2-12.1,5.8-17.7c-3.1-4-8.8-5-12.8-8.1
			c-3.6-2.8-5.8-7-8.5-10.6c-2.8-3.6-6.8-7-11.3-6.4c-9.5,1.1-9.5,14.1-7.3,20.9C340.4,110.5,340.5,110.8,340.6,111z"/>
	</g>
</g>
<g id="Designed_by_Freepik">
</g>
</svg>
